<mxfile host="app.diagrams.net" modified="2023-12-24T11:29:50.519Z" agent="Mozilla/5.0 (Windows NT 10.0; Win64; x64) AppleWebKit/537.36 (KHTML, like Gecko) Chrome/120.0.0.0 Safari/537.36" version="22.1.11" etag="jamyhXnh8W0dI9ve-vOy" type="github">
  <diagram name="Page-1" id="oNqK7Tt7VDadAU0Wci8r">
    <mxGraphModel>
      <root>
        <mxCell id="0" />
        <mxCell id="1" parent="0" />
      </root>
    </mxGraphModel>
  </diagram>
</mxfile>
